<svg width="20" height="20" viewBox="0 0 20 20" fill="none" xmlns="http://www.w3.org/2000/svg">
<g clip-path="url(#clip0_18619_1677)">
<path opacity="0.4" d="M14.3333 11.6666C14.5642 11.6666 14.6796 11.6666 14.7731 11.7179C14.8503 11.7602 14.9221 11.8396 14.9565 11.9206C14.9981 12.0188 14.9877 12.1232 14.9667 12.3322C14.858 13.4156 14.4851 14.4595 13.8765 15.3704C13.1439 16.4668 12.1027 17.3212 10.8846 17.8258C9.66638 18.3304 8.32593 18.4624 7.03272 18.2052C5.73952 17.948 4.55163 17.313 3.61928 16.3807C2.68693 15.4483 2.05199 14.2604 1.79476 12.9672C1.53752 11.674 1.66955 10.3336 2.17413 9.11541C2.67871 7.89724 3.5332 6.85605 4.62953 6.12351C5.54046 5.51484 6.58437 5.14197 7.66775 5.03327C7.87671 5.01231 7.9812 5.00182 8.07939 5.04348C8.1604 5.07785 8.23979 5.14968 8.28207 5.22684C8.33333 5.32039 8.33333 5.4358 8.33333 5.66664V11C8.33333 11.2333 8.33333 11.35 8.37874 11.4391C8.41869 11.5175 8.48243 11.5813 8.56083 11.6212C8.64996 11.6666 8.76664 11.6666 8.99999 11.6666H14.3333Z" stroke="#686868" stroke-width="2" stroke-linecap="round" stroke-linejoin="round"/>
<path d="M11.6667 2.33339C11.6667 2.10256 11.6667 1.98714 11.7179 1.89359C11.7602 1.81643 11.8396 1.7446 11.9206 1.71023C12.0188 1.66857 12.1233 1.67905 12.3323 1.70001C13.8559 1.85285 15.2883 2.52698 16.3807 3.61935C17.4731 4.71172 18.1472 6.14414 18.3001 7.66781C18.321 7.87679 18.3315 7.98127 18.2898 8.07947C18.2555 8.16047 18.1836 8.23986 18.1065 8.28214C18.0129 8.33339 17.8975 8.33339 17.6667 8.33339L12.3333 8.33339C12.1 8.33339 11.9833 8.33339 11.8942 8.28798C11.8158 8.24803 11.752 8.18429 11.7121 8.10589C11.6667 8.01676 11.6667 7.90008 11.6667 7.66673L11.6667 2.33339Z" stroke="#686868" stroke-width="2" stroke-linecap="round" stroke-linejoin="round"/>
</g>
<defs>
<clipPath id="clip0_18619_1677">
<rect width="20" height="20" fill="white"/>
</clipPath>
</defs>
</svg>
